<?xml version="1.0" encoding="UTF-8"?>
<svg version="1.1" viewBox="0 0 2000 1500" width="1280" height="1280" xmlns="http://www.w3.org/2000/svg">
<path transform="translate(0)" d="m0 0h2e3v1500h-2e3z"/>
<path transform="translate(261,296)" d="m0 0h906v210h-27v-182h-851v851h851v-182h27v210h-906z" fill="#fff"/>
<path transform="translate(761,528)" d="m0 0h29l1 98 5-12 8-11 10-8 11-5 15-3h18l15 3 14 7 10 9 7 10 5 11 4 17 1 9v51l-3 20-6 16-9 13-8 7-11 6-13 4-7 1h-18l-14-3-14-7-10-9-6-10-4-10-1-3v38h-29z" fill="#fff"/>
<path transform="translate(609,537)" d="m0 0h48l10 31 22 70 40 128v1h-31l-9-29-11-36v-3h-90l-2 9-17 57-1 2h-31l8-27 23-73 40-128z" fill="#fff"/>
<path transform="translate(1197,587)" d="m0 0h26l16 3 12 5 9 6 8 8 8 16 3 13 1 13v116h-30v-36l-5 12-6 9-7 7-10 6-10 4-12 2h-19l-15-3-12-6-9-8-5-8-4-13v-27l4-13 6-9 8-7 15-7 13-4 30-5 35-5h3l-1-14-3-10-6-9-5-4-9-4-9-2h-25l-16 3-19 7-12 6h-2v-9l2-15 8-5 16-7 20-5z" fill="#fff"/>
<path transform="translate(954,528)" d="m0 0h29l1 1v98l5-12 7-10 9-8 14-7 15-3h17l12 2 12 5 6 4 5 4 7 10 5 12 3 16v127h-29l-1-114-2-14-4-11-8-9-8-4-8-2h-19l-13 4-10 6-7 8-7 14-1 122h-30z" fill="#fff"/>
<path transform="translate(1301,591)" d="m0 0h30l12 36 24 74 11 34v4h5l2-9 16-48 14-41 17-50h31l-12 36-18 52-17 49-15 43-17 49-4 9h-29l1-6 18-53 4-10h-16l-4-10-17-50-14-41-17-50-5-14z" fill="#fff"/>
<path transform="translate(834,611)" d="m0 0h10l14 3 8 4 8 7 6 10 4 16v55l-4 16-5 9-8 8-10 5-9 2h-18l-12-3-11-6-8-8-5-8-4-14v-61l4-10 7-9 9-8 10-5z"/>
<path transform="translate(631,557)" d="m0 0h4l6 18 18 60 11 37v2h-74l4-16 26-86z"/>
<path transform="translate(1247,678)" d="m0 0h3v35l-7 14-9 9-10 6-9 3-6 1h-19l-13-4-7-6-4-8-1-5v-13l3-9 7-8 11-5 12-3z"/>
<path transform="translate(1457,900)" d="m0 0h5l1 1v69h-3l-3-4-5 4-10 1-7-3-4-5-1-2v-32l4-6 4-3 3-1h8l8 4z" fill="#fff"/>
<path transform="translate(1352,919)" d="m0 0h10l6 3 4 5 2 6v24l-3 8-6 5-3 1h-10l-6-3-5-6-1-3v-28l3-6 6-5z" fill="#fff"/>
<path transform="translate(1305,899)" d="m0 0 12 1 7 5 4 8v7h-7l-2-11-5-2h-12l-5 5-1 2v42l3 5 3 2h13l4-4 1-2 1-18h-11v-6h18v37h-3l-2-5-7 5-4 1h-9l-7-3-5-5-2-4v-48l4-6 5-4z" fill="#fff"/>
<path transform="translate(1185,899)" d="m0 0 12 1 8 6 3 7v45l-5 8-6 4-3 1h-11l-7-3-6-7-1-2v-47l3-6 6-5zm-2 7-5 3-3 6v40l3 6 4 3h13l5-4 1-2v-45l-3-5-4-2z" fill="#fff"/>
<path transform="translate(920,900)" d="m0 0h38v7h-32v25h26v6h-26v32h-7v-69z" fill="#fff"/>
<path transform="translate(1234,919)" d="m0 0h8l6 3 5 6 1 4v37l-1 1h-6l-1-40-3-3-2-1h-8l-4 2-1 2-1 40h-7v-50h3l3 4 5-4z" fill="#fff"/>
<path transform="translate(1055,920)" d="m0 0h6l1 1 1 39 3 3 2 1h8l4-2 1-2 1-40h6l1 1v48h-4l-1-2-10 4h-7l-6-3-5-6-1-3z" fill="#fff"/>
<path transform="translate(1442,925)" d="m0 0h8l5 3 2 5v24l-3 6-4 2h-8l-5-4-1-2v-28l4-5z"/>
<path transform="translate(978,919)" d="m0 0h10l8 5 3 5v31l-4 7-8 4h-9l-8-4-4-7v-30l4-7zm0 6-5 4-1 3v26l3 5 4 2h7l5-3 2-3v-28l-4-5-2-1z" fill="#fff"/>
<path transform="translate(1397,919)" d="m0 0h10l7 4 3 4 1 3v30l-4 7-8 4h-9l-8-4-4-7v-30l4-7zm0 6-5 4-1 3v26l3 5 4 2h7l5-3 2-3v-28l-4-5-2-1z" fill="#fff"/>
<path transform="translate(1112,919)" d="m0 0h10l6 3 5 6 1 6-7 1-2-7-4-2h-8l-4 1-1 7 2 4 18 7 6 7v9l-4 6-8 4h-10l-6-3-5-6-1-2v-6l6-1 3 9 4 2h8l5-2 1-7-5-5-16-6-4-5-1-2v-8l4-6 4-3z" fill="#fff"/>
<path transform="translate(1353,925)" d="m0 0h8l5 3 1 2v30l-4 4-2 1h-8l-5-3-1-2v-30l3-4z"/>
<path transform="translate(1022,919)" d="m0 0h10l8 4 4 8v5l-6 1-3-9-4-2h-8l-4 1-1 4v28l5 5h8l4-2 3-9 6 1-1 8-6 7-5 2h-9l-7-3-4-5-1-2v-32l4-6 4-3z" fill="#fff"/>
</svg>
